<?xml version="1.0" encoding="UTF-8" standalone="no"?>
<!-- Created with Inkscape (http://www.inkscape.org/) -->

<svg
   width="210mm"
   height="297mm"
   viewBox="0 0 210 297"
   version="1.1"
   id="svg931"
   inkscape:version="1.1.2 (b8e25be8, 2022-02-05)"
   sodipodi:docname="football helmet.svg"
   inkscape:export-filename="/Users/ksergi/Desktop/football helmet.png"
   inkscape:export-xdpi="96"
   inkscape:export-ydpi="96"
   xmlns:inkscape="http://www.inkscape.org/namespaces/inkscape"
   xmlns:sodipodi="http://sodipodi.sourceforge.net/DTD/sodipodi-0.dtd"
   xmlns="http://www.w3.org/2000/svg"
   xmlns:svg="http://www.w3.org/2000/svg">
  <sodipodi:namedview
     id="namedview933"
     pagecolor="#ffffff"
     bordercolor="#666666"
     borderopacity="1.0"
     inkscape:pageshadow="2"
     inkscape:pageopacity="0.0"
     inkscape:pagecheckerboard="0"
     inkscape:document-units="mm"
     showgrid="false"
     inkscape:snap-nodes="false"
     inkscape:zoom="0.79267498"
     inkscape:cx="367.11137"
     inkscape:cy="532.37457"
     inkscape:window-width="1440"
     inkscape:window-height="698"
     inkscape:window-x="0"
     inkscape:window-y="25"
     inkscape:window-maximized="0"
     inkscape:current-layer="layer1" />
  <defs
     id="defs928" />
  <g
     inkscape:label="Layer 1"
     inkscape:groupmode="layer"
     id="layer1">
    <path
       id="path5034-7"
       style="fill:#000000;stroke-width:0.264583"
       d="m 97.322792,47.782959 c -0.752602,0.0016 -1.504985,0.0073 -2.256708,0.01085 -4.33949,0.0049 -8.679183,0.371811 -12.933061,1.245918 -8.787061,1.604319 -17.400553,4.64589 -24.845512,9.650574 -14.227001,9.376486 -24.263289,24.827973 -27.078451,41.630539 -1.968068,11.0196 -0.876175,22.43332 2.284617,33.12459 1.311918,4.63814 3.036623,9.14507 4.841565,13.60847 0.869355,2.92343 0.542803,6.05451 1.431952,8.97827 0.764571,2.94564 2.429991,5.5656 3.2675,8.47958 0.22683,1.72711 -0.09774,3.76158 1.255739,5.11804 1.837259,1.89993 4.619287,2.38241 7.145817,2.55798 5.10191,0.26218 10.198907,-1.08392 14.763956,-3.30367 0.90524,-0.44571 1.78894,-0.93297 2.67839,-1.4087 7.242069,4.46117 15.20321,8.18319 23.755138,9.06094 5.185664,0.55575 10.470486,-0.10991 15.387176,-1.83606 3.43159,-1.13658 6.78269,-2.74699 9.39322,-5.30045 1.19394,-1.11566 2.27863,-2.36159 3.12849,-3.7605 5.15393,0.003 10.37807,-0.27255 15.35927,-1.68517 0.56293,-0.44392 0.90304,0.11468 1.28313,0.48783 3.13747,3.03989 6.82607,5.50974 10.89133,7.12463 7.18168,2.91725 15.0824,3.56064 22.76036,3.12901 2.89557,-0.15427 5.76502,-0.63613 8.66872,-0.65009 1.7908,-0.03 3.42038,-0.82926 5.16196,-1.13637 2.58749,-0.55839 5.24814,-1.18444 7.60936,-2.46651 1.37103,-0.58351 2.9887,-1.38424 3.27008,-3.01274 0.38464,-1.85607 -0.0486,-3.75496 -0.16278,-5.61878 -0.99381,-9.91854 -2.32736,-19.94304 -6.0048,-29.27728 -0.78297,-1.98588 -1.64879,-4.16776 -3.48609,-5.40897 -1.6929,-0.98236 -3.68359,-0.31396 -5.49734,-0.17777 -5.13122,0.73556 -10.29006,1.32182 -15.47451,0.90744 -1.34821,-0.11117 -2.81296,-0.32934 -4.23436,-0.59014 -2.48239,-5.2864 -4.61673,-10.73432 -6.87349,-16.12409 -0.37293,-0.89808 -0.74586,-1.79635 -1.11879,-2.6944 1.6788,-1.06037 3.58762,-1.69952 5.25807,-2.76521 1.98689,-1.41536 3.07028,-3.78062 3.36517,-6.152602 0.19535,-0.38205 0.89085,-0.22988 1.26969,-0.47387 1.60995,-0.517153 3.38122,-1.649106 3.52692,-3.498499 0.32977,-2.556145 -1.2765,-4.762296 -2.43292,-6.887432 -1.8935,-3.26504 -3.7518,-6.567583 -5.94951,-9.638173 -0.61347,-0.80673 -1.70446,-0.599522 -2.50011,-0.225827 -0.41863,0.0655 -0.95581,0.734806 -1.16737,0.09354 -5.42309,-7.759122 -11.87914,-14.934937 -19.78536,-20.226156 -8.65815,-5.883524 -18.80227,-9.4956 -29.19201,-10.649995 -2.24743,-0.214426 -4.506637,-0.243687 -6.764448,-0.238747 z m -2.396236,1.536856 c 16.752524,0.03712 37.938794,4.174636 57.813004,32.39389 -1.0483,-0.374589 -2.02117,-0.522756 -2.85253,-0.246497 -0.72054,-0.835321 -0.99603,-1.818989 -2.43965,-2.413291 -1.30702,-0.403389 -2.59145,0.154131 -2.82825,1.249022 -8.11105,-11.873611 -16.02688,-17.898835 -24.34787,-22.187276 -12.50981,-6.44725 -27.333445,-6.458807 -41.138054,-6.828009 5.100691,-0.586732 9.73133,-1.981274 15.79335,-1.967839 z m -18.788518,2.68976 4.101042,0.06098 c 13.93472,0.207783 24.34224,1.584627 32.66054,4.320667 10.29451,3.386048 18.53645,8.887256 25.53178,17.041336 1.60574,1.871731 3.81837,4.740346 4.90926,6.309175 0.41113,0.591262 0.663,0.99809 0.663,1.097092 0,0.0991 -0.92273,0.157409 -2.05052,0.129707 -3.54099,-0.0868 -4.00046,-0.03032 -4.5961,0.56534 -0.81007,0.81008 -0.58094,1.916173 1.57096,7.5892 1.75378,4.62344 1.80632,4.827683 1.2697,4.947502 -0.30784,0.0687 -2.58372,0.54883 -5.05758,1.06712 -8.50499,1.78185 -15.38362,3.898974 -18.70842,5.758306 -5.39139,3.01505 -8.3398,6.27521 -14.11955,15.61248 -1.15359,1.86365 -2.603264,3.987 -3.222024,4.71858 -0.61877,0.73156 -1.204423,1.64576 -1.301213,2.0314 -0.219649,0.87514 -3.273903,5.63824 -4.526854,7.05951 -1.649571,1.87115 -5.077343,7.12004 -5.081344,7.78196 -0.002,0.35328 -1.304181,2.6841 -2.914552,5.21777 -1.788945,2.81463 -2.910411,4.84495 -2.910416,5.26893 0,0.40961 0.313819,1.0037 0.77308,1.46296 1.022451,1.02245 2.300007,1.04748 3.464388,0.0677 l 0.838708,-0.7059 4.803841,0.84491 c 2.642161,0.46469 9.022726,1.55858 14.178986,2.43034 5.15624,0.87175 9.40703,1.61682 9.44593,1.65572 0.21207,0.21207 -0.86703,4.00036 -1.56011,5.47667 -1.16447,2.48038 -3.90713,5.1555 -6.75256,6.58616 -4.3185,2.1713 -9.808761,3.12632 -16.377813,2.84944 -8.30296,-0.38693 -18.966253,-4.69334 -28.299565,-6.61252 -0.174699,-0.0595 -0.147688,-0.0201 -0.03049,0.0599 -1.90667,-0.39936 -5.848826,-0.14683 -8.265647,0.55139 -2.580955,0.74565 -4.524049,0.94539 -5.276678,0.5426 -0.324342,-0.17358 -1.450422,-1.64526 -2.502691,-3.2706 -8.62321,-13.3195 -14.210273,-28.66029 -15.523083,-42.62324 -0.3908,-4.15658 -0.185684,-11.89401 0.417544,-15.74684 C 34.449168,84.529817 44.176082,69.3437 58.807828,59.815271 62.32263,57.526389 68.062863,54.771897 72.43387,53.276652 Z m 70.681472,27.909408 c 1.42271,-0.007 2.1715,1.053052 4.855,6.875031 2.44863,5.31236 2.49973,5.464794 2.50373,7.408334 0.005,2.574739 -0.74733,4.40069 -1.88309,4.57078 -1.25435,0.18776 -2.02738,0.19332 -3.05925,0.0227 l -0.98495,-0.162784 1.0511,-1.194242 c 1.65709,-1.882558 1.57319,-2.357665 -1.74718,-9.885185 -2.42211,-5.491168 -2.75136,-6.405073 -2.4474,-6.793384 0.55141,-0.704408 0.82126,-0.837292 1.71204,-0.84129 z m 8.63203,0.299723 c 0.0201,-0.0018 0.0333,0.001 0.0382,0.0083 2.13506,3.12955 7.47672,12.432279 7.84552,13.663247 0.49256,1.64402 -0.35173,2.884252 -2.3828,3.500562 -1.2079,0.366519 -1.75441,0.288737 -1.75441,-0.250113 0,-0.395089 0.24338,-0.528741 1.15031,-0.630971 1.45786,-0.164319 2.44248,-1.035716 2.43448,-2.154907 -0.011,-1.51992 -1.30532,-2.533694 -3.23546,-2.533694 h -1.15962 l -0.44183,-1.40098 c -0.60649,-1.924 -2.68523,-6.138328 -3.7791,-7.661547 -0.49663,-0.691582 -0.90279,-1.314395 -0.90279,-1.383896 0,-0.147383 1.88631,-1.129657 2.18746,-1.156001 z m -14.57482,1.54926 1.93632,0.001 -0.98134,0.901237 c -0.53967,0.495692 -1.05374,1.189342 -1.14205,1.540992 -0.10699,0.426291 0.33017,1.999059 1.31155,4.719608 1.57686,4.37138 1.63068,4.574141 1.17564,4.422471 -0.16346,-0.0545 -1.11273,-2.460591 -2.10943,-5.346962 -0.99667,-2.8863 -1.88289,-5.471345 -1.96939,-5.743834 -0.14393,-0.453541 0.007,-0.495544 1.7787,-0.494543 z m 3.18947,0.0015 c 0.0151,-1.77e-4 0.0269,0.0038 0.0346,0.01189 0.0617,0.0647 1.31561,2.854275 2.78588,6.199105 3.15157,7.16978 3.23091,7.624982 1.60352,9.173083 -0.98964,0.94143 -2.1053,1.349714 -2.1053,0.770496 0,-0.135721 0.23912,-0.32258 0.53175,-0.41548 0.60415,-0.191749 1.32033,-1.41472 1.32033,-2.255158 1e-5,-0.663241 -1.35729,-2.109433 -1.97972,-2.109433 -0.23805,0 -0.36935,-0.102925 -0.29145,-0.228925 0.0779,-0.126 -0.57969,-2.001248 -1.46141,-4.167188 -1.78874,-4.39407 -1.99374,-5.605798 -1.09916,-6.500378 0.28077,-0.280771 0.55531,-0.476782 0.66094,-0.478007 z m -5.88233,0.04961 c 0.0216,-7.75e-4 0.0427,0.0018 0.0625,0.0078 0.11913,0.03528 0.20102,0.183618 0.20102,0.393258 1e-5,0.273611 0.83344,2.910144 1.85209,5.859074 1.01864,2.94891 1.85208,5.413901 1.85208,5.477703 0,0.06377 -0.16085,0.116271 -0.35708,0.116271 -0.22069,0 -1.08726,-1.944394 -2.27222,-5.097362 -1.87223,-4.98172 -2.18616,-6.487983 -1.4056,-6.744293 0.0233,-0.0078 0.0455,-0.01162 0.0672,-0.0124 z m 12.69897,0.145728 c 0.19124,-0.0021 0.42162,0.0062 0.66869,0.02584 1.39242,0.110741 1.81608,0.560303 3.5295,3.744992 0.99719,1.853451 2.41639,5.265465 2.41639,5.809464 0,0.13253 -0.32742,0.290282 -0.7276,0.350883 -1.73216,0.2624 -1.93864,0.209949 -2.2071,-0.560171 -0.14372,-0.412282 -1.14989,-2.632713 -2.23552,-4.934582 -1.08564,-2.301873 -1.97353,-4.257273 -1.97353,-4.345472 0,-0.0441 0.1348,-0.07347 0.35192,-0.08527 0.0543,-0.0029 0.11351,-0.005 0.17725,-0.0057 z m -9.04803,1.675865 c 0.11892,0.0078 0.22097,0.217294 0.25477,0.625285 0.0295,0.355999 0.75782,2.409822 1.61851,4.564062 0.86067,2.15423 1.51044,4.006371 1.44384,4.115512 -0.43183,0.707339 -0.95752,-0.188966 -2.3208,-3.956865 -0.95601,-2.64233 -1.44823,-4.37638 -1.35133,-4.7625 0.10019,-0.399209 0.2361,-0.593492 0.35501,-0.585494 z m 16.60829,8.977746 c 2.1956,-0.003 2.45284,0.05084 2.99879,0.632003 0.35792,0.380992 0.56171,0.881644 0.50901,1.250053 -0.16737,1.169701 -1.65246,1.491146 -5.18521,1.121897 l -1.60352,-0.16795 -0.0894,-1.274339 c -0.10774,-1.537261 -0.0656,-1.556663 3.37033,-1.561664 z m -12.81265,1.416968 c 0.0641,-1.82e-4 0.12602,9.21e-4 0.185,0.0031 0.94369,0.03491 1.2451,0.372978 1.47795,1.035079 0.21848,0.621261 0.15521,0.830763 -0.4253,1.411283 -0.60281,0.60281 -1.3824,0.81244 -6.73396,1.81126 -7.16423,1.337133 -9.32575,1.861655 -14.23272,3.453025 -4.02126,1.30411 -7.81749,3.05976 -9.679,4.47621 -0.65484,0.49828 -1.26433,0.91397 -1.35444,0.92397 -0.0901,0.01 -0.48311,-0.71788 -0.87281,-1.61644 l -0.70848,-1.63349 0.74,-0.59944 c 1.52061,-1.23136 5.88683,-3.26537 9.47177,-4.412662 4.10466,-1.313596 9.32024,-2.56176 16.9845,-4.065379 2.62738,-0.515456 4.18538,-0.783762 5.14749,-0.786517 z m 11.60911,2.316139 c 1.44482,-0.0056 1.45805,0.369306 1.08055,2.655136 -0.38604,2.337612 -1.03371,3.612902 -2.45101,4.826062 l -1.11673,0.95653 -0.32608,-0.77566 c -0.17934,-0.42652 -0.6035,-0.95014 -0.94258,-1.16376 -0.51754,-0.32608 -1.35951,-0.35334 -5.2467,-0.16846 -2.54662,0.12114 -5.0952,0.22716 -5.66322,0.23616 l -1.0325,0.016 0.95705,-0.92966 c 0.5683,-0.55193 1.08066,-1.38481 1.26142,-2.050522 0.16742,-0.61658 0.34631,-1.269681 0.39791,-1.45159 0.12737,-0.449231 1.29478,-0.41941 1.67845,0.04289 0.4551,0.54836 2.79261,1.04985 4.93717,1.05885 2.29852,0.01 3.08229,-0.42783 3.61063,-2.01693 l 0.37724,-1.135332 1.76836,-0.07855 c 0.26787,-0.0122 0.50364,-0.02039 0.71004,-0.02119 z m -14.33039,2.230872 c 0.16879,0.0017 0.30075,0.148514 0.30075,0.460954 1e-5,0.89422 -0.81838,2.211292 -1.83761,2.957962 -0.70083,0.51342 -1.22024,0.66385 -2.24896,0.65215 l -1.33739,-0.015 1.32551,-0.60358 c 1.4082,-0.64082 2.90231,-1.95501 3.16569,-2.784852 0.12192,-0.3841 0.35491,-0.614486 0.55759,-0.659386 0.0253,-0.0056 0.0503,-0.0085 0.0744,-0.0083 z m -1.43144,0.354494 c 0.094,6.2e-4 0.14469,0.0117 0.14469,0.0336 0,0.39094 -0.68955,0.73267 -1.85208,0.91828 -3.59717,0.574332 -10.04552,2.331832 -12.83229,3.497472 -3.68585,1.5417 -7.70895,4.5664 -9.42475,7.08587 -0.34631,0.50852 -0.68891,0.92125 -0.76171,0.91726 -0.0728,-0.004 -0.46837,-0.74689 -0.87901,-1.65158 l -0.74673,-1.64487 1.01131,-0.8847 c 2.25122,-1.96918 9.40391,-4.86513 16.09255,-6.51536 3.22832,-0.796492 7.99796,-1.696672 9.14002,-1.752872 0.0408,-0.002 0.0767,-0.003 0.108,-0.003 z m -15.31844,5.586742 c 0.13706,0.001 -0.28619,0.31938 -0.94103,0.70694 -2.87786,1.70323 -5.4646,4.08243 -7.10086,6.53138 -0.37606,0.56283 -0.73033,0.88429 -0.78703,0.71417 -0.0567,-0.17011 0.22448,-0.78198 0.62476,-1.35961 1.12752,-1.62699 4.12084,-4.31767 6.13348,-5.51336 1.00197,-0.59526 1.93363,-1.08052 2.07068,-1.07952 z m -13.51287,0.10852 c 0.0265,-0.003 0.0437,0.004 0.0517,0.0212 0.0637,0.14552 3.18924,6.87256 6.94531,14.94896 3.75607,8.07641 6.77786,14.77367 6.71536,14.88281 -0.0625,0.10914 -0.97322,0.19844 -2.02417,0.19844 h -1.91099 L 116.148,121.07513 c -3.4516,-7.48477 -6.27559,-13.71065 -6.27559,-13.83482 1e-5,-0.36542 2.37653,-2.56401 2.774,-2.60811 z m 33.75194,2.81999 c 0.0273,5.4e-4 0.0538,0.003 0.0791,0.008 0.11537,0.0203 0.20894,0.0821 0.27544,0.18965 0.0741,0.11984 -0.28978,0.80446 -0.80874,1.52136 -2.86268,3.9546 -4.067,8.95273 -3.29127,13.66273 0.27733,1.68382 -0.39843,2.44386 -1.06764,1.20044 -0.18324,-0.34045 -0.36864,-2.06782 -0.43304,-4.0349 -0.12959,-3.95769 0.24216,-6.05104 1.52755,-8.5974 1.07974,-2.13895 2.87338,-3.9665 3.71864,-3.94963 z m -37.31245,0.50849 c 0.10271,0 0.54491,0.80187 0.98288,1.78181 l 0.79634,1.7818 -0.81856,1.45934 c -0.45028,0.80267 -2.05137,3.33664 -3.55792,5.63118 l -2.73936,4.17184 -0.70901,-0.50953 c -0.38989,-0.28032 -1.04344,-0.8621 -1.45262,-1.29294 l -0.74414,-0.78342 1.49862,-2.32285 c 0.82411,-1.27747 1.97575,-3.10878 2.55953,-4.06952 1.36394,-2.24466 3.94224,-5.84771 4.18424,-5.84771 z m 39.88852,0.52917 c 0.77622,0 0.78884,0.0268 5.43843,11.31094 2.56335,6.22102 4.69303,11.48791 4.73253,11.70419 0.0499,0.27337 -0.25077,0.44513 -0.98651,0.56327 -2.44324,0.39235 -1.87688,1.27072 -6.93239,-10.74611 -2.51007,-5.96635 -4.56627,-10.94618 -4.57026,-11.06651 -0.017,-0.54821 1.58147,-1.76578 2.3182,-1.76578 z m -2.94969,2.75332 c 0.12554,0.002 0.21452,0.14485 0.3514,0.46095 2.23419,5.16013 5.72823,13.71907 5.60017,13.71855 -0.0921,-2.7e-4 -0.8818,-0.43108 -1.75493,-0.95705 -1.89565,-1.14195 -4.37084,-3.09086 -5.79758,-4.5651 l -1.03507,-1.0697 0.2961,-2.09496 c 0.30925,-2.18676 1.24693,-4.68344 1.98903,-5.29632 0.1408,-0.11632 0.24186,-0.18402 0.32556,-0.19482 0.009,-0.001 0.0169,-0.002 0.0253,-0.002 z m -34.74465,1.10794 1.29966,2.76573 1.29915,2.76572 -0.416,2.52491 c -0.52288,3.17457 -0.52943,6.22803 -0.0191,8.89506 0.21825,1.14059 0.39686,2.11785 0.39688,2.17145 6e-5,0.12867 -1.57138,-1.04431 -3.70365,-2.76366 -0.94588,-0.76272 -2.65765,-2.26064 -3.8039,-3.32899 l -2.08411,-1.94252 2.76055,-4.23334 c 1.51836,-2.32833 3.10025,-4.82311 3.51555,-5.54384 z m 3.22358,7.25744 c 0.005,4.6e-4 0.009,0.003 0.0124,0.007 0.0483,0.0578 0.019,0.46324 -0.0791,1.30949 -0.31322,2.70223 -0.18627,6.55581 0.29042,8.82581 0.51446,2.44983 0.52522,2.97956 0.0393,1.88981 -0.19467,-0.43656 -0.49966,-1.7628 -0.67799,-2.94711 -0.36419,-2.41871 -0.20945,-7.77913 0.25476,-8.82685 0.0757,-0.17084 0.12866,-0.26161 0.1602,-0.25838 z m 29.27573,0.75758 1.14412,1.0542 c 1.59986,1.4747 4.17322,3.33649 6.10401,4.41626 1.68918,0.94464 1.9137,1.28973 3.49902,5.37177 0.20655,0.53184 -0.72814,0.19466 -3.37913,-1.21905 -3.07641,-1.64058 -6.48846,-3.69481 -6.80888,-4.09949 -0.14561,-0.18389 -0.33086,-1.50195 -0.41186,-2.92902 z m -43.29193,0.87643 c 0.18914,0.0438 2.12992,1.72537 4.31291,3.73724 6.38492,5.88437 9.26111,7.92692 13.15269,9.33948 3.13085,1.13644 4.48281,1.21168 13.70769,0.76326 13.31856,-0.64743 20.593,-1.3307 31.12833,-2.92385 5.60195,-0.84713 5.55625,-0.83561 5.55625,-1.39578 0,-1.02393 1.49606,-1.49669 2.45515,-0.77567 0.556,0.418 2.8224,5.21904 4.3403,9.19428 3.35045,8.77454 5.04295,17.36358 5.29839,26.89241 0.17334,6.46663 0.27701,6.20906 -2.48874,6.15156 -0.84464,-0.0175 -2.6664,0.10178 -4.04885,0.2651 -5.05826,0.5976 -9.43865,0.68613 -13.6462,0.27544 -12.1397,-1.18491 -20.60672,-5.65848 -26.01598,-13.74542 -0.88718,-1.32637 -1.61282,-2.53918 -1.61282,-2.69544 0,-0.18751 0.47222,-0.22743 1.38906,-0.1173 0.76399,0.0918 1.68673,0.16801 2.05052,0.17001 0.53449,0.002 0.81183,0.29081 1.4454,1.50327 3.73164,7.14126 15.82731,12.25662 28.98169,12.25662 1.6122,0 4.08734,-0.14551 5.50044,-0.3235 1.41309,-0.178 3.14976,-0.30462 3.85919,-0.28112 l 1.28985,0.0429 -0.18501,-4.28346 c -0.20756,-4.81359 -0.6835,-8.71099 -1.46606,-12.00598 -0.66234,-2.78883 -0.91085,-3.25717 -1.72961,-3.25717 -0.35743,0 -7.16958,1.14391 -15.13809,2.54197 l -14.48801,2.54196 -6.38772,0.13591 c -7.09258,0.15097 -9.64037,-0.0537 -20.80545,-1.67225 -8.56113,-1.24106 -28.680562,-4.69702 -28.957401,-4.97386 -0.0615,-0.0615 0.331557,-0.77954 0.873847,-1.59628 0.674352,-1.01565 1.119354,-1.44539 1.408184,-1.35909 1.341419,0.40099 32.20397,5.73035 34.59169,5.97328 3.08941,0.3143 15.19595,0.3981 17.24029,0.11937 4.9947,-0.68101 31.16015,-4.68529 31.25855,-4.78369 0.20959,-0.20959 -0.81,-4.87275 -1.59473,-7.29361 -0.80044,-2.46932 -1.73236,-4.47244 -2.54972,-5.48184 -0.47696,-0.58901 -0.55101,-0.604 -1.15186,-0.22582 -0.79703,0.50167 -11.54377,2.35966 -18.63401,3.22151 -9.44758,1.14839 -12.46263,1.34277 -20.6375,1.33376 -7.30934,-0.008 -8.12336,-0.0559 -10.28619,-0.59841 -5.1172,-1.28356 -8.44454,-3.4608 -17.42426,-11.4024 -1.642,-1.45218 -2.576688,-2.47106 -2.579689,-2.81223 -0.006,-0.67139 1.524889,-2.56235 1.987479,-2.45515 z m 33.89819,2.11512 c 0.0571,1.4e-4 0.11426,9.1e-4 0.17156,0.003 2.35772,0.0688 4.9018,1.42835 6.58616,3.92379 0.89004,1.31862 2.33113,4.97585 2.33113,5.91592 0,0.27013 -0.41965,0.43554 -1.38907,0.54777 -1.32824,0.15376 -8.35717,0.5499 -11.21533,0.632 l -1.35909,0.0393 -0.3266,-2.66548 c -0.41676,-3.4022 -0.25975,-4.77871 0.70074,-6.13812 1.08217,-1.53167 2.73131,-2.26221 4.5005,-2.25774 z m -36.506302,1.56166 c 0.0088,-1.3e-4 0.01998,0.002 0.03307,0.006 0.392941,0.12438 2.699572,2.11635 2.699572,2.35903 10e-6,0.56665 -3.276033,5.28212 -3.669021,5.28133 -0.23776,-5.3e-4 -0.816152,-0.23492 -1.285193,-0.5209 -1.446305,-0.88186 -1.381966,-1.4825 0.471289,-4.41368 0.905931,-1.43285 1.68478,-2.64995 1.731159,-2.70475 0.004,-0.005 0.01034,-0.007 0.01912,-0.007 z m 46.231802,2.09754 c 0.22774,-0.008 0.92692,0.3277 1.7446,0.84905 0.94588,0.60309 3.25765,1.8972 5.13767,2.87579 l 3.4184,1.77922 -1.16944,0.16898 c -0.91272,0.1318 -6.33602,0.73881 -8.09357,0.90589 -0.17033,0.0162 -0.37248,-0.29796 -0.44958,-0.69815 -0.30264,-1.57133 -0.75629,-5.57174 -0.66249,-5.84202 0.007,-0.0201 0.0252,-0.0327 0.0543,-0.0367 0.006,-9.7e-4 0.0128,-0.002 0.0202,-0.002 z m -42.85113,0.90744 c 0.006,-9e-5 0.0131,8.2e-4 0.0207,0.002 0.21097,0.0367 0.98203,0.61111 1.86397,1.39991 3.5975,3.21766 7.66233,6.17911 10.29963,7.50445 l 2.64583,1.32964 1.01544,2.69337 c 0.94566,2.50826 2.0408,6.31567 2.3921,8.31578 0.0986,0.56131 0.0446,0.85989 -0.15503,0.85989 -0.16821,0 -3.70724,-0.60591 -7.86463,-1.34668 -4.15739,-0.74077 -7.58286,-1.37039 -7.61246,-1.39889 -0.0296,-0.0285 0.6995,-0.87136 1.62058,-1.87275 2.81198,-3.05717 3.80187,-5.72477 2.73058,-7.35976 -0.24919,-0.38031 -1.97323,-1.73509 -3.83077,-3.01067 -1.85757,-1.27558 -3.81544,-2.63254 -4.35116,-3.01583 l -0.974102,-0.69712 1.039212,-1.56321 c 0.57161,-0.85979 1.07843,-1.67871 1.12603,-1.82004 0.005,-0.0132 0.0159,-0.0199 0.0341,-0.0202 z m 82.10558,0.42633 c 0.0176,-0.002 0.0382,-0.002 0.061,0.002 h 5.2e-4 c 0.18452,0.0276 0.53593,0.24492 1.01131,0.64492 0.92129,0.77524 2.19521,3.66541 3.72535,8.45168 1.81993,5.69269 3.05429,12.04157 3.9641,20.38584 0.72952,6.69067 0.86768,8.58029 0.57826,7.90804 -0.1323,-0.30731 -0.57305,-0.82056 -0.97979,-1.14049 -0.40674,-0.31995 -1.25026,-0.71832 -1.8743,-0.88522 -1.06453,-0.28473 -1.13443,-0.36131 -1.13843,-1.24075 -0.009,-2.16613 -0.55167,-8.71948 -0.93638,-11.31042 l -0.41444,-2.79363 0.72657,-0.75861 c 0.58471,-0.6103 0.74897,-1.0669 0.84077,-2.33577 0.10666,-1.47465 0.0618,-1.62909 -0.69039,-2.38125 -0.52257,-0.52258 -1.0703,-0.80461 -1.56373,-0.80461 -0.72127,0 -0.79783,-0.11672 -1.51102,-2.3151 -0.41308,-1.27331 -1.21643,-3.4036 -1.78542,-4.73408 l -1.03457,-2.41897 0.67283,-0.99167 c 0.71589,-1.05492 0.84467,-1.95405 0.39894,-2.78692 -0.16758,-0.31338 -0.17535,-0.47694 -0.0512,-0.49454 z m -2.14095,0.24443 c 1.56631,0.005 2.19993,1.45354 1.13585,2.59571 -0.29508,0.31671 -0.80109,0.63979 -1.12448,0.71778 -0.3234,0.078 -2.13538,0.48691 -4.02715,0.90899 -1.89177,0.42207 -3.46824,0.77655 -3.50314,0.78755 -0.0349,0.011 -0.42319,-0.77266 -0.86248,-1.74149 -0.4393,-0.96886 -0.76789,-1.78676 -0.73019,-1.81746 0.18187,-0.14832 8.37764,-1.45308 9.11159,-1.45108 z m -104.603953,0.0248 c -5.031748,0 -9.130708,3.99065 -9.130708,8.91418 0,4.92352 4.09896,8.91212 9.130708,8.91212 5.03175,0 9.132776,-3.9886 9.132776,-8.91212 0,-4.92353 -4.101026,-8.91418 -9.132776,-8.91418 z m 82.528293,0.28732 c 0.009,-7.2e-4 0.0199,1.1e-4 0.0315,0.003 0.031,0.007 0.0708,0.0246 0.11886,0.0543 0.40867,0.25257 5.68684,0.94588 7.25175,0.95188 3.21345,0.0133 -0.88481,1.24887 -6.04872,1.82366 -0.16609,0.0185 -0.5065,-0.47243 -0.75655,-1.09089 -0.25004,-0.61847 -0.52156,-1.29284 -0.60306,-1.49861 -0.0614,-0.15505 -0.0579,-0.23786 0.006,-0.24288 z m -82.528293,0.6134 c 4.55759,0 8.232573,3.58888 8.232573,8.01346 0,4.42457 -3.674983,8.01398 -8.232573,8.01398 -4.557588,0 -8.229987,-3.58941 -8.229987,-8.01398 0,-4.42458 3.672399,-8.01346 8.229987,-8.01346 z m 17.010848,1.57509 c 0.180861,-0.001 0.427638,0.22861 0.690398,0.6904 0.46246,0.8125 1.845016,1.5751 2.856156,1.5751 0.672079,0 8.620721,6.04615 9.297111,7.07192 0.48385,0.73378 0.64573,1.94118 0.30592,2.281 -0.0994,0.0994 -0.3237,-0.1587 -0.49816,-0.57361 -0.17446,-0.4149 -0.9168,-1.35399 -1.64951,-2.08669 v -5.2e-4 c -1.34159,-1.3416 -5.638314,-4.32568 -9.31313,-6.46783 -1.598996,-0.9321 -1.984375,-1.28025 -1.984375,-1.79317 0,-0.46331 0.114731,-0.6956 0.29559,-0.6966 z m 5.284949,1.30018 c 0.189902,9.4e-4 2.120026,1.23053 4.339266,2.76573 4.26218,2.94843 4.96596,3.71044 4.63745,5.01933 l -0.17467,0.69556 -0.51986,-0.82062 c -0.28579,-0.45138 -2.36245,-2.22787 -4.61471,-3.94756 -3.744528,-2.85911 -4.387193,-3.5084 -3.675229,-3.7114 0.0021,-6.1e-4 0.0047,-0.001 0.0078,-0.001 z m -6.29729,0.4005 c 0.135961,-0.006 0.254754,0.10119 0.427365,0.25734 0.304451,0.27542 1.985659,1.33928 3.73569,2.36368 3.785151,2.21567 5.933451,3.79079 7.604181,5.57692 1.80041,1.92479 1.83668,2.38293 0.32505,4.07056 -1.45276,1.62189 -2.17482,2.08886 -2.90887,1.88102 -0.29104,-0.0824 -3.293042,-1.95214 -6.670909,-4.1553 -4.57241,-2.9823 -6.144628,-4.14117 -6.153629,-4.53513 -0.007,-0.29104 0.781873,-1.69295 1.751833,-3.11557 1.209828,-1.77445 1.59018,-2.33132 1.889289,-2.34352 z m 88.507776,0.0351 c 0.32377,0 0.71853,0.55393 1.27227,1.78593 1.02255,2.27499 2.72652,7.18607 2.55334,7.35924 -0.22332,0.22332 -5.2948,0.86082 -6.504,0.81753 l -1.14102,-0.0408 -1.45934,-3.70417 c -0.80267,-2.03729 -1.51862,-3.9477 -1.59112,-4.24521 -0.12089,-0.49616 0.13835,-0.60025 3.13418,-1.25678 1.79649,-0.3937 3.47755,-0.71571 3.73569,-0.71571 z m -12.57546,2.11666 c 0.70439,0 3.80038,7.81133 3.29592,8.31577 -0.20869,0.20874 -4.73353,0.16085 -5.96656,-0.063 -1.00801,-0.18304 -1.00983,-0.18574 -2.44016,-3.60753 -0.78733,-1.88353 -1.40503,-3.45046 -1.37252,-3.48196 0.0916,-0.0887 6.08053,-1.16324 6.48332,-1.16324 z m -7.26674,1.45521 1.04283,2.51354 c 0.57374,1.38244 1.61074,3.85076 2.30425,5.48494 l 1.26091,2.97088 -0.95653,0.15554 c -0.52614,0.0854 -1.13513,0.19307 -1.35341,0.23926 -0.9494,0.20091 -1.12311,0.0658 -1.77043,-1.37614 -0.37566,-0.83674 -1.43374,-3.30729 -2.35077,-5.4901 -1.8724,-4.45699 -1.898,-4.25613 0.5731,-4.41679 z m -65.851793,0.13849 c -0.991889,-0.006 -1.860106,0.67343 -2.08928,1.6428 -0.231989,0.98467 0.259453,1.99689 1.176674,2.42362 l 0.960146,-4.06538 c -0.0158,-4.5e-4 -0.0318,-9.4e-4 -0.04754,-0.001 z m 0.886767,0.20102 -0.960149,4.06436 c 1.011327,0.0288 1.903804,-0.65671 2.13682,-1.64125 0.231719,-0.9845 -0.259673,-1.99642 -1.176671,-2.42311 z m 60.564266,0.42582 c 0.0267,0.001 0.0437,0.004 0.0496,0.007 0.13243,0.0818 0.54223,0.89375 0.91053,1.80454 0.3683,0.91082 0.86587,2.11907 1.10588,2.6846 l 0.43667,1.02784 -1.80454,-0.18035 c -0.9925,-0.0994 -4.06495,-0.56221 -6.8275,-1.02836 l -5.02294,-0.8475 -0.17467,-1.05833 c -0.0961,-0.58208 -0.15743,-1.07654 -0.13643,-1.09864 0.14345,-0.15089 10.63499,-1.34345 11.46339,-1.31103 z m -39.7614,1.28984 c 0.0734,-0.0189 0.61161,1.2053 1.20974,2.75384 1.07658,2.78718 1.72502,5.22534 1.32395,4.97747 -0.1096,-0.0677 -0.28226,-0.56689 -0.38395,-1.10897 -0.10169,-0.54205 -0.65178,-2.22928 -1.22267,-3.74913 -0.57088,-1.51985 -0.98967,-2.81164 -0.93017,-2.87114 9.3e-4,-9.3e-4 0.002,-0.002 0.003,-0.002 z m 26.20253,0.26975 c 0.60959,0.002 0.86705,0.0656 0.94465,0.19121 0.65141,1.05401 0.46172,11.01666 -0.22273,11.70109 -0.2354,0.23541 -6.08856,0.6993 -7.97315,0.632 l -0.91829,-0.0325 -2.71508,-5.82084 -2.71457,-5.82083 3.36827,-0.18087 c 1.85265,-0.0995 5.08044,-0.32039 7.17269,-0.49041 1.48669,-0.1208 2.44862,-0.1808 3.05821,-0.1788 z m -16.58917,0.71779 h 2.10427 l 2.68666,5.79654 c 1.47778,3.18811 2.68717,5.87737 2.68717,5.97587 0,0.21814 -4.03196,-0.12044 -4.27106,-0.35864 -0.13685,-0.13635 -4.68017,-9.86485 -5.17591,-11.08304 -0.10097,-0.24813 0.39035,-0.33073 1.96887,-0.33073 z m -38.162525,0.0501 0.731224,0.43099 c 0.40241,0.23723 1.055378,0.6895 1.450557,1.00459 l 0.718301,0.57257 -2.840135,4.26279 c -2.725151,4.08983 -2.875992,4.26227 -3.72432,4.26227 -0.542851,0 -1.065565,-0.20065 -1.354439,-0.51986 -0.272453,-0.30109 -0.420953,-0.77435 -0.352952,-1.12448 0.06461,-0.33252 1.299636,-2.46879 2.744536,-4.747 z m 12.097455,0.78859 c -0.0946,0.002 -0.18864,0.0105 -0.28215,0.0248 l 1.45727,3.91397 c 0.85702,-0.53728 1.21895,-1.60256 0.86662,-2.55074 -0.31149,-0.83528 -1.10946,-1.38883 -2.00092,-1.38803 -0.0135,0 -0.0273,-2.7e-4 -0.0408,0 z m -1.090892,0.32453 c -0.857512,0.5374 -1.219517,1.6033 -0.866613,2.55178 0.353446,0.94791 1.324035,1.51726 2.323895,1.36322 z m 46.451432,1.02216 c 0.0155,-5e-4 0.0331,-2.5e-4 0.0527,0 0.5491,0.007 2.66764,0.29105 5.12217,0.69349 2.80519,0.45992 5.8641,0.92328 6.79751,1.0294 l 1.69706,0.19275 0.74982,1.68052 0.75034,1.68052 -1.91823,-0.17777 c -1.05488,-0.0976 -3.88224,-0.47536 -6.28333,-0.83974 -2.4011,-0.36439 -4.92385,-0.78109 -5.60586,-0.92605 l -1.24024,-0.26354 -0.18086,-1.44901 c -0.0996,-0.79694 -0.11027,-1.51971 -0.0238,-1.60611 0.008,-0.008 0.0361,-0.013 0.0827,-0.0145 z m -53.858215,0.16174 0.739492,0.48008 c 0.40658,0.26406 1.941169,1.25397 3.410644,2.19986 1.469469,0.94588 2.678657,1.78919 2.686658,1.87379 0.0143,0.15121 -8.483293,-1.32214 -8.690943,-1.50688 -0.0584,-0.052 0.334737,-0.75849 0.87385,-1.57045 z m 93.645445,1.10639 c 0.0618,-3.7e-4 0.12166,2e-4 0.17932,0.001 0.92247,0.0134 1.33061,0.1829 1.66191,0.51418 0.64976,0.64976 0.71773,2.52309 0.12248,3.37292 -0.42792,0.61094 -1.0734,0.83745 -5.14956,1.80609 -3.68014,0.87454 -3.56222,0.89938 -3.95015,-0.83406 -0.18167,-0.81165 -0.28127,-1.52481 -0.22117,-1.58491 0.0601,-0.0601 1.46938,-0.4158 3.13211,-0.79014 1.66273,-0.37434 3.13247,-0.78826 3.26595,-0.91984 0.55278,-0.54493 -0.72778,-0.51271 -3.7083,0.0925 -1.73175,0.35167 -3.16169,0.62534 -3.17759,0.60824 -0.0159,-0.0171 -0.10265,-0.33914 -0.19275,-0.71572 l -0.16381,-0.68471 3.63233,-0.44339 c 2.23989,-0.27353 3.64252,-0.41648 4.56923,-0.4222 z m -18.32188,1.17306 c 0.40295,-6e-4 0.84545,0.004 1.30897,0.015 l 3.37085,0.0796 0.20516,0.9865 c 0.1128,0.54268 0.15128,1.04038 0.0858,1.10588 -0.19447,0.19448 -2.81677,0.52622 -4.44056,0.56172 l -1.50895,0.0331 -0.54157,-1.22421 c -0.29785,-0.67334 -0.54157,-1.31383 -0.54157,-1.42317 0,-0.0821 0.85306,-0.13236 2.06189,-0.13436 z m -41.49669,0.39532 c 0.11188,9.6e-4 0.1748,0.12432 0.25373,0.32608 0.13021,0.33292 0.84537,1.90122 1.58905,3.48558 l 1.35238,2.88096 -2.82257,-0.18914 c -1.55223,-0.10398 -3.47539,-0.29539 -4.27364,-0.42529 -0.79826,-0.12992 -1.50335,-0.28844 -1.56735,-0.35244 -0.064,-0.064 0.44669,-0.63338 1.13482,-1.26504 0.6881,-0.63164 1.94844,-1.95624 2.80086,-2.944 0.91841,-1.06423 1.29889,-1.48756 1.50999,-1.51515 0.008,-0.001 0.0153,-0.002 0.0227,-0.002 z m 19.99671,1.06351 c 0.0599,0 2.16619,0.34927 4.68034,0.77617 2.51414,0.4269 6.02982,0.91975 7.81244,1.09555 1.78263,0.17577 3.24115,0.39801 3.24115,0.4935 0,0.13056 -14.11924,2.43837 -16.08274,2.62879 -0.25507,0.0247 -0.30179,-0.31346 -0.18707,-1.35599 0.3133,-2.8472 0.42974,-3.63802 0.53588,-3.63802 z m 40.4735,3.0086 c 0.0355,5.7e-4 0.0583,0.005 0.0662,0.0129 0.22153,0.22154 0.84182,5.0079 1.11208,8.5788 0.32644,4.31354 0.34771,6.12676 0.0718,6.12676 -0.11206,0 -1.09433,-0.2429 -2.18281,-0.5395 -1.08848,-0.29661 -2.53658,-0.72026 -3.21841,-0.94155 l -1.23972,-0.40204 -0.17105,-1.50585 c -0.21456,-1.89134 -1.08709,-7.29347 -1.41025,-8.73177 l -0.24339,-1.08365 1.49034,-0.29818 c 0.81975,-0.16399 2.43257,-0.52748 3.58376,-0.8077 0.86339,-0.21016 1.63796,-0.36286 1.99781,-0.39946 0.0599,-0.006 0.10816,-0.009 0.14367,-0.009 z m -146.75073,1.09244 1.826247,3.43958 c 2.55809,4.81733 6.055593,10.39846 7.015591,11.19518 0.220012,0.18259 0.918898,0.42161 1.552877,0.53072 l 1.1529,0.19844 -0.715716,0.7183 c -0.425892,0.42775 -1.004647,0.71882 -1.429888,0.71882 -1.004689,0 -2.484813,-1.6424 -3.425113,-3.8008 -0.420571,-0.96539 -0.925163,-1.75545 -1.120862,-1.75545 -0.469019,0 -0.247441,0.705 0.937411,2.98379 1.906198,3.66613 4.340465,4.36196 6.077664,1.73685 0.84614,-1.2786 1.675582,-1.44679 0.948264,-0.19224 -0.900401,1.5531 -2.453137,2.38101 -5.186249,2.76521 -1.61209,0.22661 -1.498565,0.6289 0.360185,1.27951 2.172481,0.76042 6.236253,0.67675 9.578745,-0.19689 2.512359,-0.65667 6.561257,-2.23291 7.832595,-3.04943 l 0.62787,-0.40307 -0.698148,-0.601 c -0.830752,-0.7146 -1.994421,-1.0521 -5.265312,-1.5291 -2.22223,-0.32405 -2.319708,-0.36187 -1.113112,-0.42737 3.40048,-0.18471 5.110432,0.20348 7.186641,1.63194 1.162791,0.80003 1.201005,0.86477 0.724506,1.22267 -1.681411,1.26292 -6.153047,3.02765 -9.630939,3.80028 -3.246697,0.72126 -8.543806,0.57823 -10.527003,-0.28422 -2.018332,-0.87773 -2.43758,-1.5268 -2.43758,-3.77393 2e-6,-1.68828 -0.133956,-2.14054 -1.576647,-5.32215 -1.814841,-4.00235 -2.326666,-5.76406 -2.541447,-8.74985 z m 133.9603,1.18907 c 0.34166,0.001 0.58725,0.63693 1.09967,2.84582 0.3629,1.56435 0.73331,3.35987 0.82321,3.98994 l 0.16381,1.14567 -1.22938,-0.88109 c -0.67617,-0.48455 -1.81379,-1.51963 -2.52801,-2.30011 -1.38917,-1.51806 -2.87011,-3.55166 -2.87011,-3.94085 0,-0.21274 3.44029,-0.86338 4.54081,-0.85938 z m -105.196681,0.83458 c -0.178369,-0.002 -0.166561,0.23048 0.09147,0.71262 1.829039,3.29942 16.614162,9.99951 22.512319,1.65467 0,-0.53809 -0.48971,-0.29472 -1.08262,0.53796 -4.938665,4.62818 -16.025755,1.97602 -20.008082,-1.77561 -0.73946,-0.73946 -1.283706,-1.12764 -1.513087,-1.12964 z m 99.615111,0.0486 1.42007,2.02675 c 1.37609,1.96383 4.04541,4.63708 5.48287,5.49062 0.77084,0.4577 1.01699,1.25218 1.01699,3.28507 0,1.54314 0.0847,1.56513 -3.11351,-0.80615 -1.17106,-0.8683 -2.79853,-2.25877 -3.61683,-3.09025 -1.43128,-1.45433 -4.38216,-5.58009 -4.38216,-6.12676 0,-0.14562 0.71831,-0.38054 1.59628,-0.52193 z m -4.79351,0.92708 c 0.54585,-0.01 0.6611,0.10513 0.80719,0.29404 0.21828,0.28225 0.99014,1.43689 1.71565,2.56573 0.72553,1.12885 2.11008,2.84336 3.07682,3.8101 1.61344,1.61344 5.33376,4.49236 6.79442,5.25757 0.55396,0.29022 0.60026,0.47175 0.52916,2.07739 l -0.0775,1.75958 -1.04696,0.21652 c -4.36687,0.90359 -13.08864,0.87701 -17.73845,-0.0537 -6.91938,-1.38503 -12.58832,-3.90704 -16.1401,-7.18096 l -1.19321,-1.10019 1.03249,-1.11983 c 0.56792,-0.61612 1.35507,-1.60705 1.74873,-2.20193 0.61741,-0.93295 0.88444,-1.10603 1.94511,-1.2609 0.67631,-0.0987 5.21849,-0.87795 10.09343,-1.73117 5.43772,-0.95168 7.5435,-1.31581 8.45324,-1.33221 z m -61.78848,0.008 c -0.14013,0 -0.28006,0.0108 -0.41857,0.032 l 1.89084,5.07979 c 1.11249,-0.69734 1.58238,-2.08013 1.12499,-3.31091 -0.40451,-1.08395 -1.44029,-1.80191 -2.59726,-1.80092 z m -1.46864,0.42065 c -1.112837,0.6976 -1.582528,2.08099 -1.124479,3.31194 0.458745,1.23038 1.718559,1.96939 3.016349,1.7694 z m 17.80615,1.46605 c 0.0499,-3e-4 0.10293,0.001 0.15916,0.005 0.29992,0.0177 0.694,0.0844 1.22215,0.17156 l 1.02888,0.17002 -0.154,2.17816 c -0.30901,4.37873 -1.61128,7.62501 -4.11551,10.25829 -2.64284,2.77902 -5.44691,4.3836 -10.45001,5.98051 -5.22277,1.66702 -10.820487,2.04233 -16.355587,1.09606 -6.78512,-1.15997 -13.807596,-4.19337 -21.981604,-9.49451 -0.27831,-0.18049 -0.504804,-0.29077 -0.772562,-0.45424 14.477119,4.02744 25.575403,8.70193 41.320993,3.45095 5.03894,-2.53588 8.2204,-6.55715 9.03821,-11.42411 0.25177,-1.49844 0.31196,-1.93275 1.05988,-1.93735 z m 3.48919,0.52969 c 0.62632,2.7e-4 9.84181,1.07555 10.14719,1.18391 0.17532,0.0622 0.57659,0.62502 0.89193,1.25057 0.31533,0.62556 1.09002,1.86719 1.72186,2.759 l 1.14928,1.62109 -1.64434,0.46612 c -0.90423,0.25634 -2.59632,0.61644 -3.7605,0.79995 -2.30554,0.36345 -10.19035,0.50873 -10.18025,0.18759 0.003,-0.10914 0.22698,-1.03188 0.49713,-2.05052 0.27014,-1.01865 0.57728,-2.83435 0.68264,-4.0349 0.11875,-1.35283 0.30715,-2.18291 0.49506,-2.18281 z m 19.62981,0.98805 c 0.19117,-8.3e-4 0.36598,3.9e-4 0.51883,0.004 0.40763,0.01 0.6606,0.035 0.66043,0.0734 -0.002,0.47318 -2.30238,3.16776 -2.70423,3.16776 -0.12018,0 -0.5733,-0.55897 -1.00666,-1.2423 -0.43335,-0.68334 -0.78755,-1.38928 -0.78755,-1.56838 1e-5,-0.22555 0.69134,-0.35153 2.24948,-0.41083 0.38664,-0.0147 0.75108,-0.0224 1.0697,-0.0238 z m -68.125557,1.12655 c -0.140144,3e-4 -0.280077,0.0111 -0.418579,0.0325 l 1.890843,5.0798 c 1.112498,-0.69734 1.582375,-2.08013 1.124995,-3.31091 -0.40435,-1.08414 -1.440167,-1.80244 -2.597259,-1.80144 z m -1.468644,0.42116 c -1.112879,0.6976 -1.582528,2.08099 -1.124479,3.31194 0.458751,1.23039 1.718554,1.96938 3.016353,1.7694 z m 109.806731,4.68344 c 0.0655,-0.0111 0.99706,0.25276 2.11925,0.60048 1.1584,0.35893 3.05883,0.84493 4.223,1.08003 3.54697,0.71632 4.93627,1.75146 4.52892,3.37447 -0.30347,1.20914 -3.43697,2.65059 -7.83621,3.60495 -1.23693,0.26832 -2.39778,0.49623 -2.57969,0.50643 -0.23443,0.0132 -0.33073,-0.51288 -0.33073,-1.80661 v -1.82521 l 1.91823,-0.17725 c 2.1241,-0.19633 3.63802,-0.58832 3.63802,-0.94206 0,-0.52593 -0.99704,-0.70838 -3.18843,-0.58343 l -2.32182,0.1323 -0.0956,-1.95389 c -0.0525,-1.07447 -0.0875,-1.97815 -0.0786,-2.00815 2.8e-4,-9.3e-4 0.001,-0.002 0.004,-0.002 z"
       sodipodi:nodetypes="ccccccccccccccccccccccccccccccccccccccccccccsccccscsccsssscsscsssssscssscccsssscccssssssccccccccccsccccsssscsccssccccccsscccsccsscsscssssccssssscccscsscssscssccscssccscccccscsssssscccsssscscccsscccscscccccccsscccsscccssssscccssccsssscssccsssccscccccsssssccscccccccccssssccscscccscccccccccccsssccccccccssssccccssssscscssssssscsssssccsscccsscccssscssssssscsscssccsssccccccccscssccccscccscsccccccscsssssssscccccccccssssssccccsssscccccccsssssccsssssccccsscccsssssscssssccssscscccsscccsssssscsccsscccsscccccsccccccccsssccccccccccccccsccccccccccscsssccccscccccsccsccsssscccccsssccscccssscccccsscccccsccccccccsscscccssssssssssccccccccscccscccccccsssscccsssscssccsssccccccscccccssccssssssssscccscsssssscccscccsscccccccccssssscccsssscccccccscccccccccccccccccccssssccscccssccssssscccssssscccccccccccccsssscsccscccscc" />
  </g>
</svg>
